# xmcd
#
# Track frame offsets:
#	150
#	33850
#	95042
#	115948
#	137151
#	152675
#	181563
#	201557
#	224855
#	244870
#	268798
#	297151
#
# Disc length: 4336 seconds
#
# Revision: 2
# Processed by: cddbd v1.5.2PL0 Copyright (c) Steve Scherf et al.
# Submitted via: audiograbber 1.83.01
#
DISCID=b910ee0c
DTITLE=The Rolling Stones - Voodoo Lounge Uncut [CD 2)
DYEAR=2018
DGENRE=Rock
TTITLE0=I Go Wild [live]
TTITLE1=Miss You [live]
TTITLE2=Honky Tonk Women [live]
TTITLE3=Before They Make Me Run [live]
TTITLE4=The Worst [live]
TTITLE5=Sympathy For The Devil [live]
TTITLE6=Monkey Man [live]
TTITLE7=Street Fighting Man [live]
TTITLE8=Start Me Up [live]
TTITLE9=It's Only Rock 'n' Roll (But I Like It) [live]
TTITLE10=Brown Sugar [live]
TTITLE11=Jumpin' Jack Flash [live]
EXTD=
EXTT0=
EXTT1=
EXTT2=
EXTT3=
EXTT4=
EXTT5=
EXTT6=
EXTT7=
EXTT8=
EXTT9=
EXTT10=
EXTT11=
PLAYORDER=
